# xmcd
#
# Track frame offsets:
#	150
#	9529
#	19881
#	30484
#	39078
#	47096
#	73149
#	82868
#	93883
#	104490
#	116255
#	124317
#
# Disc length: 1794 seconds
#
# Revision: 1
# Processed by: cddbd v1.5.2PL0 Copyright (c) Steve Scherf et al.
# Submitted via: audiograbber 1.83.01
#
DISCID=8c07000c
DTITLE=Ravens Creed - Albion Thunder
DYEAR=2009
DGENRE=Death Metal
TTITLE0=Peace through superior firepower
TTITLE1=Pear of anguish
TTITLE2=Insignia
TTITLE3=Butcher of the whore
TTITLE4=Pox mortis
TTITLE5=The power of spite
TTITLE6=Hail the warbeast
TTITLE7=Stand up and be cunted
TTITLE8=Bloodbath
TTITLE9=Spy on your swine
TTITLE10=Storm the gates
TTITLE11=Unholy force of extraordinary magnitude
EXTD=
EXTT0=
EXTT1=
EXTT2=
EXTT3=
EXTT4=
EXTT5=
EXTT6=
EXTT7=
EXTT8=
EXTT9=
EXTT10=
EXTT11=
PLAYORDER=
